<?xml version="1.0" standalone="no"?>
<!DOCTYPE svg PUBLIC "-//W3C//DTD SVG 20010904//EN"
 "http://www.w3.org/TR/2001/REC-SVG-20010904/DTD/svg10.dtd">
<svg version="1.0" xmlns="http://www.w3.org/2000/svg"
 width="74.000000pt" height="74.000000pt" viewBox="0 0 74.000000 74.000000"
 preserveAspectRatio="xMidYMid meet">
<metadata>
Created by potrace 1.14, written by Peter Selinger 2001-2017
</metadata>
<g transform="translate(0.000000,74.000000) scale(0.100000,-0.100000)"
fill="#000000" stroke="none">
<path d="M369 716 c-4 -4 -79 -17 -106 -19 -7 0 -13 -4 -13 -9 0 -4 -7 -8 -16
-8 -9 0 -23 -8 -31 -17 -10 -12 -12 -13 -8 -3 5 12 4 12 -7 -1 -7 -9 -17 -16
-21 -17 -14 -2 -77 -69 -70 -76 3 -3 2 -6 -4 -6 -15 0 -55 -103 -58 -149 -1
-21 -5 -43 -9 -50 -4 -6 -3 -11 2 -11 5 0 8 -10 7 -22 -1 -13 2 -29 8 -36 5
-7 7 -15 4 -19 -4 -3 -1 -15 5 -27 7 -11 12 -24 13 -28 0 -3 10 -18 22 -32 13
-14 20 -26 15 -26 -4 0 11 -17 34 -37 28 -27 40 -45 39 -62 -2 -20 0 -21 9 -9
11 15 46 21 46 7 0 -4 9 -6 20 -4 11 2 19 -1 17 -6 -2 -10 60 -21 113 -21 43
1 94 13 118 29 13 8 26 12 29 10 2 -3 13 2 23 11 10 10 36 33 58 52 22 19 38
38 35 42 -2 5 1 8 6 8 6 0 11 6 11 14 0 8 4 16 10 18 5 1 11 13 13 25 2 12 6
26 10 29 4 4 7 18 7 31 0 17 4 22 13 17 8 -5 8 -2 -2 9 -9 11 -10 17 -2 17 6
0 11 5 11 11 0 5 -4 8 -8 5 -5 -3 -9 1 -9 9 0 8 4 12 8 10 4 -3 6 3 4 12 -2
10 -4 18 -5 18 -3 0 -11 39 -13 62 -1 13 -6 23 -10 23 -5 0 -5 5 -2 10 3 6 1
10 -4 10 -6 0 -11 6 -11 14 0 8 -7 22 -16 30 -8 9 -12 16 -8 16 4 0 -6 12 -23
28 -16 15 -33 35 -36 45 -6 15 -25 22 -49 18 -5 0 -8 4 -8 10 0 5 -4 7 -10 4
-5 -3 -10 -2 -10 3 0 10 -47 24 -87 26 -12 1 -25 5 -29 9 -8 8 -18 9 -25 3z"/>
</g>
</svg>
